PathFileType	4	(X/Y/Z)	/Users/niels/Desktop/University/Third Semester/Perception and Action/Exam/Gymnastics Motion Tracking/Code for Gym Tracking/Analyzed Data/Webcam_Backflip/id4_4_pure_Sports2D/id4_4_pure_Sports2D_px_person00.trc
DataRate	CameraRate	NumFrames	NumMarkers	Units	OrigDataRate	OrigDataStartFrame	OrigNumFrames
29.8125	29.8125	11	22	m	29.8125	60	160
Frame#	Time	Hip			RHip			RKnee			RAnkle			RBigToe			RSmallToe			RHeel			LHip			LKnee			LAnkle			LBigToe			LSmallToe			LHeel			Neck			Head			Nose			RShoulder			RElbow			RWrist			LShoulder			LElbow			LWrist		
		X1	Y1	Z1	X2	Y2	Z2	X3	Y3	Z3	X4	Y4	Z4	X5	Y5	Z5	X6	Y6	Z6	X7	Y7	Z7	X8	Y8	Z8	X9	Y9	Z9	X10	Y10	Z10	X11	Y11	Z11	X12	Y12	Z12	X13	Y13	Z13	X14	Y14	Z14	X15	Y15	Z15	X16	Y16	Z16	X17	Y17	Z17	X18	Y18	Z18	X19	Y19	Z19	X20	Y20	Z20	X21	Y21	Z21	X22	Y22	Z22
60	2.012578616352201	0.9124255769627102	-0.6721609517494852	0.0	0.9133951213749407	-0.6719746707927156	0.0	0.9266352050664659	-0.7754606197442683	0.0	0.8883864181043468	-0.863375984283461	0.0	0.9132043031079315	-0.8783643569791317	0.0	0.9072992507016048	-0.8827484495951623	0.0	0.8747287579768129	-0.8697612623006892	0.0	0.9115889161841777	-0.6689977523836702	0.0	0.9241490275142655	-0.7751058583715706	0.0	0.8910321024114921	-0.8594714194898238	0.0	0.9202683797139166	-0.8740501559327246	0.0	0.909893218692657	-0.8721470339941764	0.0	0.8755426289167061	-0.8630335543958894	0.0	0.9246552121350983	-0.5194592129231919	0.0	0.9459121329883234	-0.4474068848036715	0.0	0.9524800190986298	-0.4826046304372918	0.0	0.9234573513121267	-0.523852087561887	0.0	0.9758500704106078	-0.46482526576314404	0.0	1.007971114378126	-0.4062361837824102	0.0	0.9192185432841021	-0.5226449874834369	0.0	0.9629615621674855	-0.4637282283225147	0.0	0.9917138155666324	-0.40767782571493	0.0
61	2.0461215932914043	0.914981414090708	-0.658307680072187	0.0	0.916212597777938	-0.6577643299804639	0.0	0.9282666041103755	-0.7603044800566913	0.0	0.8890618014857681	-0.8481307247807611	0.0	0.915895946516299	-0.8654160564209719	0.0	0.9099054072737834	-0.8690555092722594	0.0	0.8760345061493283	-0.8574535711079742	0.0	0.9136612634954544	-0.6547573222875506	0.0	0.9251779303454932	-0.7599260639843526	0.0	0.8917442722208357	-0.8445822898904598	0.0	0.9211965982001025	-0.861684487721996	0.0	0.9120151714319441	-0.8594892583078492	0.0	0.8773112625662387	-0.8502722917422849	0.0	0.9206601666369915	-0.5063633677069299	0.0	0.9385504460725177	-0.43213719721823246	0.0	0.9468533776027408	-0.4683302071929242	0.0	0.920048764952506	-0.5095458663950896	0.0	0.9675435666235851	-0.44732538013903156	0.0	0.9932423329629074	-0.3869545700253194	0.0	0.9157484920296164	-0.5092648329805671	0.0	0.9578558928238281	-0.45202764688283814	0.0	0.9877083795501784	-0.39766174349908806	0.0
62	2.079664570230608	0.9171064799491138	-0.633241308746299	0.0	0.918472677953166	-0.6323387033093466	0.0	0.9301046280265073	-0.734790697702402	0.0	0.8913537036300831	-0.8247872797601503	0.0	0.9196255826389453	-0.845212982522987	0.0	0.9138766239650249	-0.8478932754103958	0.0	0.878749780440521	-0.8375039009999133	0.0	0.9155263260314953	-0.6294942959623485	0.0	0.9262187237584226	-0.7343817157016597	0.0	0.893602208188033	-0.821386654359089	0.0	0.9234326286446346	-0.8418216454923876	0.0	0.9160971093816078	-0.838839213217094	0.0	0.8804372141495458	-0.8296487729345425	0.0	0.9183550577466654	-0.48258493935444996	0.0	0.9344533332688822	-0.4063087910183674	0.0	0.9437432719724873	-0.4437345170413715	0.0	0.9180282528446179	-0.484478730865634	0.0	0.9621704273128664	-0.4209252707094457	0.0	0.9833180675625334	-0.36103961906221543	0.0	0.9145092815586211	-0.4850468386321217	0.0	0.9576976879155796	-0.4324699771267549	0.0	0.9907988600612897	-0.3815128034975695	0.0
63	2.113207547169811	0.9188424522670466	-0.600406371265538	0.0	0.9201941637757365	-0.5991517819451444	0.0	0.9318335656319698	-0.7023399705293727	0.0	0.8947349383574784	-0.7961624260564601	0.0	0.9235658251236446	-0.8203606928193433	0.0	0.9181604818389957	-0.8219761639743445	0.0	0.8823316028938345	-0.8120177635960305	0.0	0.9173259683131882	-0.5966056389226856	0.0	0.9270627318207558	-0.7019538919309597	0.0	0.8959154754208166	-0.7925573643939943	0.0	0.9263003229054577	-0.8169651428742452	0.0	0.9209503743452894	-0.8126870836886251	0.0	0.8839760947358202	-0.8031183523056349	0.0	0.9174282061366753	-0.45109984432117817	0.0	0.9327585596761071	-0.3730749887062163	0.0	0.9427525910488703	-0.4117156304474619	0.0	0.9170361407589807	-0.4517881616869052	0.0	0.959091168342307	-0.38758206558023245	0.0	0.9778028634068013	-0.3299044984674804	0.0	0.9153340493459771	-0.45312871624783646	0.0	0.9611364688575599	-0.4067781429676986	0.0	0.9982931342698488	-0.35975641444956585	0.0
64	2.1467505241090143	0.9201000005695552	-0.5634861551167729	0.0	0.9213648300018573	-0.5619350188892137	0.0	0.9330774213458507	-0.6665365674619163	0.0	0.8986936774278247	-0.7648980928314879	0.0	0.9269382661624155	-0.7934285945182885	0.0	0.9217406811396414	-0.7940304846162461	0.0	0.8864285156175425	-0.7832071441970415	0.0	0.9189288644338177	-0.5597335273652244	0.0	0.9274142253703026	-0.6662725916812453	0.0	0.8978047676225295	-0.7607970742832814	0.0	0.9284127500473096	-0.7898317551699154	0.0	0.9246212231761155	-0.7839798120934283	0.0	0.8869107328037197	-0.7729076262942434	0.0	0.917693536268785	-0.41546662571151305	0.0	0.9326412799198346	-0.3361296751162852	0.0	0.9434024077005447	-0.375781263274837	0.0	0.9169093572752064	-0.4152289238736366	0.0	0.9577248310479985	-0.3502718076323081	0.0	0.9758864777876755	-0.29574690679099186	0.0	0.9178696735687213	-0.41718253653684195	0.0	0.9664528014208761	-0.3772550682080194	0.0	1.0072043890334716	-0.33377761067568273	0.0
65	2.180293501048218	0.920728187059703	-0.5256910641822335	0.0	0.9218757426301537	-0.5239380738492	0.0	0.9336484412610037	-0.6303335123284739	0.0	0.9027896192355268	-0.7329113918659942	0.0	0.9288208664607573	-0.7662043420062212	0.0	0.9236431620750588	-0.765924398908531	0.0	0.8907776359761562	-0.752793352282532	0.0	0.9200646897799168	-0.5220635706412191	0.0	0.927244344029495	-0.6302728138655311	0.0	0.8985490092743615	-0.7281762456942076	0.0	0.9281107729596273	-0.7625479999639619	0.0	0.9251133681975637	-0.7550750715582727	0.0	0.8884739509170066	-0.7408356072305365	0.0	0.9190327175754642	-0.37892360761786337	0.0	0.9336114965630168	-0.29887095809369474	0.0	0.9451653935889575	-0.3391744583646551	0.0	0.9176294936745707	-0.3782028752691771	0.0	0.9576538368569615	-0.31213600534328434	0.0	0.9764674621609728	-0.2606934264446407	0.0	0.9215980620653093	-0.38053284057596287	0.0	0.9721922060931922	-0.3461084296333457	0.0	1.0154383724969338	-0.30544324368554177	0.0
66	2.213836477987421	0.9206641424505051	-0.4893975217352699	0.0	0.9216313082882812	-0.48753172450190785	0.0	0.9336495903675411	-0.5957062539347104	0.0	0.9065958552533715	-0.7013946927044795	0.0	0.9285421470604432	-0.739431165265886	0.0	0.9233541706688422	-0.7384031913825526	0.0	0.8950407518417534	-0.7219239333586437	0.0	0.9205378366714094	-0.4859428847960426	0.0	0.9268067724670935	-0.5958693148932356	0.0	0.8978081294030664	-0.6960119766323026	0.0	0.9243418528432266	-0.7361978714242108	0.0	0.9213398923312834	-0.7271658393295183	0.0	0.8883288950775967	-0.7082112279095425	0.0	0.9212950655601186	-0.3439099491225997	0.0	0.9356125673861212	-0.26393003655458264	0.0	0.9475807578696004	-0.3043944550576801	0.0	0.9191977539806804	-0.34322887993644813	0.0	0.9585347906290461	-0.27576919019084956	0.0	0.9783677292977565	-0.2265698623886638	0.0	0.9259564438151351	-0.3456918222713883	0.0	0.9773812987185974	-0.31522793201684507	0.0	1.0220239314362298	-0.2767858040683795	0.0
67	2.2473794549266244	0.9200310578686955	-0.4561772925539227	0.0	0.9207621842556444	-0.45424473703436324	0.0	0.9333534748858991	-0.5638813679727227	0.0	0.9096771206536071	-0.6713006978586618	0.0	0.9262748184629951	-0.71329734324098	0.0	0.9212433627615377	-0.7116726274343913	0.0	0.8987554089820219	-0.6916629322780194	0.0	0.9203063457173835	-0.4528721483902197	0.0	0.9263779246672144	-0.5642163606360665	0.0	0.8958237158879816	-0.6653709619535703	0.0	0.9175159298820312	-0.7111239354564546	0.0	0.9138489285561558	-0.7006598783738627	0.0	0.8867219478894502	-0.6764036356183952	0.0	0.9242354985084469	-0.31209304140378125	0.0	0.9387466459847068	-0.23304137665181254	0.0	0.9503496257113652	-0.27315155531956903	0.0	0.9215158875619625	-0.31189804092424184	0.0	0.9600459490860126	-0.24287566048544307	0.0	0.980647433109	-0.19481632948376001	0.0	0.9304211038874848	-0.314319425755443	0.0	0.981463258432664	-0.2861502343122699	0.0	1.0267893317360473	-0.24958262813590268	0.0
68	2.280922431865828	0.9191125076865069	-0.42697356727181485	0.0	0.9196771787512189	-0.4249542217989277	0.0	0.932981543716781	-0.5357211133081828	0.0	0.9116401960622713	-0.6436646547334822	0.0	0.9231020686516952	-0.6882102747396444	0.0	0.9184185367519225	-0.6862148034839906	0.0	0.9013502850391952	-0.6633059808081122	0.0	0.9194608506729557	-0.42366082009060785	0.0	0.9260616865811451	-0.5361018937264563	0.0	0.8935071012238475	-0.6374270565488769	0.0	0.9097204593596485	-0.6875483862786913	0.0	0.9049310592983624	-0.6759010504772351	0.0	0.8845217823038644	-0.6471655864380426	0.0	0.9275384845478637	-0.2845144969020362	0.0	0.942944845794358	-0.2070364556228265	0.0	0.9533622338331756	-0.24642546316975386	0.0	0.9243623929607439	-0.284995181399201	0.0	0.9619655365093001	-0.2143291933399557	0.0	0.9828924363430882	-0.16626660673841276	0.0	0.9346121331478018	-0.2872826167565757	0.0	0.9842993858972795	-0.2597763381097391	0.0	1.0300859538292515	-0.2249899715577829	0.0
69	2.314465408805031	0.9182128745076805	-0.4021675052263057	0.0	0.9188245636815274	-0.39996487249389184	0.0	0.9325906901212865	-0.5117767124186641	0.0	0.9122965866959276	-0.6194758945855484	0.0	0.9204671508734248	-0.6650673354169108	0.0	0.9160915773575798	-0.6630032385947218	0.0	0.9023554100284784	-0.6381563431521171	0.0	0.9181826863019579	-0.3985576422566131	0.0	0.9257771052263074	-0.5120653869805197	0.0	0.8920722891389614	-0.6132721907278035	0.0	0.9038280925342129	-0.6659076774350312	0.0	0.8977317149317142	-0.6535051915895698	0.0	0.8828735822306728	-0.6222173280393056	0.0	0.9308190767395258	-0.26154722972919425	0.0	0.9477826150080951	-0.1858898694703834	0.0	0.9565634377321561	-0.22440027900508108	0.0	0.9274037437194241	-0.2626108841373498	0.0	0.9642332199623688	-0.19040318368122536	0.0	0.9851615038043736	-0.14116936544305153	0.0	0.9383491472995581	-0.26470925889438407	0.0	0.9861431047807449	-0.23628593511081117	0.0	1.032580479425014	-0.20357332909568146	0.0
70	2.3480083857442344	0.9175007217823438	-0.38163547292708977	0.0	0.9183972492396814	-0.3790890009547869	0.0	0.9321005922697088	-0.49210466198547026	0.0	0.9117867934787813	-0.5993914958568805	0.0	0.919374578650935	-0.6449207678069289	0.0	0.9148713162261011	-0.6430743166196519	0.0	0.9017506136735733	-0.6170910556307972	0.0	0.9166947821467792	-0.37743214736064873	0.0	0.9253766873268902	-0.49229561846587994	0.0	0.8923960038026597	-0.5935888572280736	0.0	0.9019258170486345	-0.6468171929300854	0.0	0.8947467753032268	-0.6342816495424868	0.0	0.8826581135620154	-0.602586107775846	0.0	0.9336482456476576	-0.24289121541082928	0.0	0.9525189863055248	-0.1689830004629627	0.0	0.9597498204338636	-0.20653606971137148	0.0	0.9302328225066396	-0.24435011018249267	0.0	0.9668763431887066	-0.17097489008074615	0.0	0.9876793008256457	-0.11954874393891356	0.0	0.9415429942681396	-0.24621652377814454	0.0	0.9873864701467687	-0.2156965796090435	0.0	1.0349561002313314	-0.1856383683137883	0.0
